<?xml version="1.0" encoding="utf-8"?>
<!-- Generator: Adobe Illustrator 27.2.0, SVG Export Plug-In . SVG Version: 6.00 Build 0)  -->
<svg version="1.1" id="Layer_1" xmlns="http://www.w3.org/2000/svg" xmlns:xlink="http://www.w3.org/1999/xlink" x="0px" y="0px"
	 viewBox="0 0 379 379" style="enable-background:new 0 0 379 379;" xml:space="preserve">
<style type="text/css">
	.st0{fill:#002F56;}
</style>
<path class="st0" d="M189.5,379C294.2,379,379,294.2,379,189.5S294.2,0,189.5,0S0,84.8,0,189.5S84.8,379,189.5,379z M100,160.9
	L179.3,87c2.8-2.6,6.4-4.1,10.2-4.1c3.8,0,7.5,1.5,10.2,4.1l79.3,73.9c3.3,3.1,5.3,7.5,5.3,12.1c0,9.1-7.4,16.5-16.5,16.5H225v71.1
	c0,13.1-10.6,23.7-23.7,23.7h-23.7c-13.1,0-23.7-10.6-23.7-23.7v-71.1h-42.7c-9.1,0-16.5-7.4-16.5-16.5
	C94.8,168.4,96.7,164,100,160.9z"/>
</svg>
